<?xml version="1.0" encoding="UTF-8"?>
<svg version="1.1" xmlns="http://www.w3.org/2000/svg" width="310" height="310">
<path d="M0 0 C2.83076889 1.83999978 5.54573659 3.752144 8.234375 5.79296875 C9.06324219 6.41429688 9.89210937 7.035625 10.74609375 7.67578125 C42.13610875 32.01905819 63.70977464 66.61611355 68.765625 106.41015625 C71.87627866 137.12786115 67.31272856 166.30269257 53.234375 193.79296875 C52.574375 193.79296875 51.914375 193.79296875 51.234375 193.79296875 C50.9034082 193.07044922 50.57244141 192.34792969 50.23144531 191.60351562 C36.38267767 159.4702257 36.38267767 159.4702257 18.234375 129.79296875 C17.26951172 128.48199219 17.26951172 128.48199219 16.28515625 127.14453125 C7.94421626 116.23084553 -1.94850455 107.55639284 -15.765625 104.79296875 C-25.06615279 103.83025238 -32.62560094 106.27035994 -39.859375 112.140625 C-40.4884375 112.68589844 -41.1175 113.23117188 -41.765625 113.79296875 C-42.67828125 114.56447266 -42.67828125 114.56447266 -43.609375 115.3515625 C-60.03127517 130.36895805 -61.64416815 155.97760109 -62.765625 176.79296875 C-63.55426292 197.28224135 -62.32308367 217.64273246 -60.83300781 238.07006836 C-59.99977 249.67151299 -59.57027588 261.16155666 -59.765625 272.79296875 C-84.89293665 276.13012452 -108.8807194 272.78413054 -132.765625 264.79296875 C-133.755625 264.46296875 -134.745625 264.13296875 -135.765625 263.79296875 C-134.765625 260.79296875 -134.765625 260.79296875 -132.61328125 259.43359375 C-131.69417969 258.9746875 -130.77507812 258.51578125 -129.828125 258.04296875 C-107.77065264 246.44427204 -92.13451694 228.59053738 -84.39990234 204.89404297 C-76.25885107 177.92641893 -82.25023667 151.37796843 -95.11865234 127.05493164 C-99.29999866 119.37900685 -103.94584112 112.03088188 -108.69287109 104.69555664 C-122.667509 83.09540015 -133.99581596 61.84477059 -129.04296875 35.359375 C-127.22858025 27.16948066 -124.36512819 19.36251223 -120.765625 11.79296875 C-120.34796875 10.88160156 -119.9303125 9.97023437 -119.5 9.03125 C-113.15669034 -3.74650883 -101.27828323 -16.69355769 -87.5859375 -21.55078125 C-59.33513196 -28.12437589 -23.71356776 -14.29555381 0 0 Z " fill="#D00E2A" transform="translate(236.765625,33.20703125)"/>
<path d="M0 0 C-1.46331005 3.25919057 -3.32169645 5.71666533 -5.625 8.4375 C-22.8009002 29.63461821 -29.15351015 52.06525513 -27 79 C-26.26618161 84.54549278 -24.82835084 89.70932365 -23 95 C-22.68417969 95.96808594 -22.36835937 96.93617187 -22.04296875 97.93359375 C-17.26357289 110.83975261 -8.91264121 122.62191646 -1.375 134.0625 C13.75734095 157.52859393 25.7197052 184.59386617 20.3515625 213.1328125 C15.57003667 231.40069322 2.79588461 246.09668366 -13 256 C-32.0863934 266.45891978 -32.0863934 266.45891978 -39.42578125 265.7734375 C-49.23711867 262.82556981 -57.68815108 252.96416734 -65 246 C-65.64710937 245.40574219 -66.29421875 244.81148437 -66.9609375 244.19921875 C-83.13888542 228.89472811 -94.41543376 207.5983473 -101.25 186.625 C-101.48420654 185.91956055 -101.71841309 185.21412109 -101.9597168 184.48730469 C-105.99686739 171.45377872 -107.50888701 158.28401035 -107.39111328 144.69775391 C-107.37499776 142.4996951 -107.39110264 140.3034736 -107.41015625 138.10546875 C-107.43138572 124.40284392 -105.36542476 111.11282057 -101.3125 98 C-100.93121948 96.75645752 -100.93121948 96.75645752 -100.54223633 95.48779297 C-94.78697774 77.43822713 -85.29669973 61.36998049 -73 47 C-72.31421875 46.19175781 -71.6284375 45.38351563 -70.921875 44.55078125 C-62.39552266 34.78228046 -52.98635571 25.94349704 -42 19 C-41.41686035 18.62520508 -40.8337207 18.25041016 -40.23291016 17.86425781 C-12.20401715 0 -12.20401715 0 0 0 Z " fill="#960E19" transform="translate(113,17)"/>
<path d="M0 0 C25.95993813 12.21644147 39.64433047 53.16378946 49.91064453 77.46875 C50.57977854 79.02356431 51.27347028 80.5684152 52.00732422 82.09375 C53.21154483 84.62063914 53.99042319 86.67842084 54.07421875 89.4921875 C52.40931086 93.37899066 49.71866797 96.09735482 46.8125 99.125 C46.18537109 99.78516113 45.55824219 100.44532227 44.91210938 101.12548828 C38.7739153 107.45224327 32.18384838 112.90898792 25 118 C24.44908691 118.39380859 23.89817383 118.78761719 23.33056641 119.19335938 C10.81457271 128.01253699 -4.83794818 137.02309132 -20 140 C-21.34241216 139.70535023 -22.67838042 139.37710816 -24 139 C-25.94578405 114.23437797 -27.31421356 89.53556782 -27.375 64.6875 C-27.38249268 63.62784027 -27.38998535 62.56818054 -27.39770508 61.47640991 C-27.65195022 17.8805714 -27.65195022 17.8805714 -14 4 C-9.66171436 0.4713944 -5.57160343 -0.96062128 0 0 Z " fill="#EE163D" transform="translate(221,161)"/>
</svg>
